<svg xmlns="http://www.w3.org/2000/svg" version="1.1" xmlns:xlink="http://www.w3.org/1999/xlink" width="747" height="510"><svg version="1.1" xmlns="http://www.w3.org/2000/svg" width="747" height="510">
<path d="M0 0 C41.19417909 -0.08060607 41.19417909 -0.08060607 58.53320312 -0.09765625 C70.47796355 -0.10949677 82.42269564 -0.12337251 94.36743164 -0.15087891 C103.06895202 -0.17090714 111.77044928 -0.18373867 120.47199208 -0.18817699 C125.0729805 -0.1907685 129.67390283 -0.19679466 134.27486992 -0.21146011 C138.61931363 -0.22519366 142.963665 -0.22919134 147.30812836 -0.22621536 C148.88936175 -0.22675856 150.47059873 -0.23064095 152.05181313 -0.23841095 C188.77735579 -0.40978618 219.24409343 10.16204926 246.0625 35.6875 C257.92210807 47.86662207 266.76014041 62.78716885 272.3125 78.8125 C272.54291992 79.46186523 272.77333984 80.11123047 273.01074219 80.78027344 C278.40637298 97.42670558 278.44917776 114.53782127 278.3984375 131.84375 C278.40046445 134.30839117 278.40338102 136.77303175 278.40713501 139.2376709 C278.41152912 144.37448908 278.40522189 149.51114954 278.39111328 154.64794922 C278.37402348 161.18347484 278.38388039 167.71863065 278.40183067 174.25414276 C278.41274768 179.33496818 278.4091861 184.41570805 278.4014473 189.49653625 C278.3994671 191.90432277 278.40182645 194.31211743 278.40888596 196.71989441 C278.49157216 232.83389777 269.91952965 264.39539276 244.22265625 290.8671875 C232.00393023 302.99252674 217.5459973 311.77440848 201.5 317.875 C200.79012939 318.14924805 200.08025879 318.42349609 199.34887695 318.70605469 C185.81278508 323.55921312 172.23682891 324.43951525 158.02734375 324.34057617 C156.29101578 324.33972747 154.55468673 324.34020978 152.81835938 324.34190369 C148.15820124 324.34275558 143.4982803 324.32526229 138.83817673 324.30418181 C133.9482014 324.28527877 129.05821912 324.28365393 124.16821289 324.28010559 C114.93220969 324.27082481 105.69631451 324.24626539 96.46035862 324.21605712 C83.96292235 324.17607894 71.46545601 324.16002614 58.9679718 324.14255047 C39.31190048 324.11444092 19.65605697 324.05464513 0 324 C0 296.94 0 269.88 0 242 C11.3540625 241.9690625 11.3540625 241.9690625 22.9375 241.9375 C25.32991943 241.928396 27.72233887 241.91929199 30.18725586 241.90991211 C32.07145125 241.90699308 33.95564727 241.90444449 35.83984375 241.90234375 C36.82795044 241.89722778 37.81605713 241.89211182 38.83410645 241.88684082 C39.76791138 241.88671997 40.70171631 241.88659912 41.66381836 241.88647461 C42.88626503 241.88314369 42.88626503 241.88314369 44.13340759 241.87974548 C46 242 46 242 47 243 C47.08851529 245.59359322 47.11525945 248.16039691 47.09765625 250.75390625 C47.0962413 251.52935287 47.09482635 252.3047995 47.09336853 253.10374451 C47.08775345 255.59003494 47.07519846 258.0762366 47.0625 260.5625 C47.05748694 262.24413933 47.0529237 263.92578006 47.04882812 265.60742188 C47.03777913 269.73831566 47.02050445 273.86914276 47 278 C62.51749333 277.93922139 78.03483596 277.86155175 93.55214024 277.76428509 C100.75862214 277.71949814 107.96505651 277.68004513 115.17163086 277.65356445 C121.45974025 277.6304447 127.74769702 277.59689382 134.035685 277.55129844 C137.35896682 277.52755222 140.68196294 277.51026029 144.00534248 277.50238609 C168.78363207 277.43777608 191.52320602 275.78129022 210.625 257.9375 C221.36318378 246.58350639 230.08307604 231.07866601 230.14044189 215.1136322 C230.14615204 214.15647308 230.15186218 213.19931396 230.15774536 212.21315002 C230.15886322 211.17464401 230.15998108 210.136138 230.16113281 209.06616211 C230.16609772 207.96304688 230.17106262 206.85993164 230.17617798 205.72338867 C230.190779 202.07470066 230.19759931 198.42605618 230.203125 194.77734375 C230.20887951 192.23490905 230.2146372 189.69247436 230.22039795 187.15003967 C230.22956115 182.49756857 230.23586289 177.84511046 230.2388947 173.19263262 C230.24336479 166.37258414 230.26086724 159.55273715 230.2898953 152.73274988 C230.31424471 146.80342252 230.32184532 140.87414448 230.32357025 134.94476509 C230.32658533 132.43432076 230.33457488 129.92387704 230.34775543 127.4134655 C230.36493605 123.88869139 230.36290589 120.36439936 230.35644531 116.83959961 C230.37026749 115.30309502 230.37026749 115.30309502 230.3843689 113.73554993 C230.32666948 103.61436227 228.10660852 94.02999294 223.5 85 C223.15960693 84.328479 222.81921387 83.65695801 222.46850586 82.96508789 C214.28206979 67.63578145 200.05800481 56.72177658 183.87988281 50.87176514 C170.86156205 47.10549717 157.80086295 47.3883917 144.33848953 47.39249516 C140.9058337 47.38932653 137.47334051 47.36362805 134.04077148 47.34051514 C127.56726744 47.30024952 121.09386334 47.27968452 114.62025356 47.26654124 C107.23903947 47.25057027 99.8579931 47.21211339 92.47687721 47.17194796 C77.31797398 47.08995293 62.15908865 47.03560983 47 47 C47.00523682 48.05501709 47.01047363 49.11003418 47.01586914 50.19702148 C47.03391901 54.0975663 47.04543195 57.9981074 47.05493164 61.89868164 C47.0599719 63.58944316 47.06680405 65.28020029 47.07543945 66.97094727 C47.08751857 69.39600707 47.09323123 71.82100944 47.09765625 74.24609375 C47.10281754 75.00651474 47.10797882 75.76693573 47.11329651 76.55039978 C47.11349238 78.3673257 47.06197277 80.18413127 47 82 C46 83 46 83 44.13340759 83.12025452 C43.31844315 83.11803391 42.5034787 83.11581329 41.66381836 83.11352539 C40.73001343 83.11340454 39.7962085 83.11328369 38.83410645 83.11315918 C37.35194641 83.10548523 37.35194641 83.10548523 35.83984375 83.09765625 C34.93657349 83.09664917 34.03330322 83.09564209 33.10266113 83.09460449 C29.71426126 83.08935512 26.32587941 83.07539398 22.9375 83.0625 C15.368125 83.041875 7.79875 83.02125 0 83 C0 55.61 0 28.22 0 0 Z " fill="#1F2289" transform="translate(230,45)"></path>
<path d="M0 0 C18.27375 -0.103125 36.5475 -0.20625 55.375 -0.3125 C64.00922119 -0.38078003 64.00922119 -0.38078003 72.81787109 -0.45043945 C79.88208008 -0.47302246 79.88208008 -0.47302246 83.19595337 -0.47721863 C85.49556321 -0.48486396 87.79515381 -0.50238173 90.09463501 -0.52787781 C93.59127269 -0.56468779 97.08669256 -0.5695232 100.58349609 -0.56762695 C101.5967716 -0.58561749 102.61004711 -0.60360804 103.65402794 -0.62214375 C111.44838174 -0.56588274 118.13615022 1.40080962 123.94759178 6.81418896 C129.68669674 13.04647143 130.30058706 18.75052673 130.30639648 26.95581055 C130.31472 27.95484909 130.32304352 28.95388763 130.33161926 29.98320007 C130.35570392 33.28441271 130.36449055 36.58542758 130.37109375 39.88671875 C130.38006276 42.18732257 130.38918466 44.4879258 130.39845276 46.78852844 C130.41494223 51.61285824 130.42264254 56.43711865 130.42553711 61.26147461 C130.4309141 67.42726341 130.46856698 73.59239497 130.51428127 79.75799847 C130.54410623 84.51168667 130.5512619 89.26521785 130.55226326 94.01899147 C130.55645639 96.29107478 130.56885401 98.56315896 130.58978081 100.83514977 C130.61680065 104.02298846 130.61183693 107.20931999 130.59936523 110.3972168 C130.62161667 111.79022003 130.62161667 111.79022003 130.64431763 113.21136475 C130.5611303 120.72263536 128.49324212 127.57535686 123.01015377 132.95077038 C115.69495867 138.9624375 108.218929 139.29226958 99.10766602 139.22705078 C97.47088976 139.22741239 97.47088976 139.22741239 95.80104733 139.2277813 C92.28524934 139.22629408 88.76966607 139.21108826 85.25390625 139.1953125 C83.07678326 139.19237024 80.89965886 139.19033092 78.72253418 139.18920898 C70.66916781 139.1787429 62.61583178 139.15082038 54.5625 139.125 C36.556875 139.08375 18.55125 139.0425 0 139 C0 93.13 0 47.26 0 0 Z " fill="#009944" transform="translate(285,138)"></path>
<path d="M0 0 C4.62 0 9.24 0 14 0 C15.00598393 3.74848774 16.00500382 7.49859547 17 11.25 C17.28617187 12.31347656 17.57234375 13.37695312 17.8671875 14.47265625 C18.13789063 15.49746094 18.40859375 16.52226562 18.6875 17.578125 C18.93886719 18.52075195 19.19023437 19.46337891 19.44921875 20.43457031 C20 23 20 23 20 27 C20.66 27 21.32 27 22 27 C22.11214844 25.88625 22.22429688 24.7725 22.33984375 23.625 C22.96508944 18.62303449 24.23158076 13.85394077 25.5625 9 C25.79646484 8.12988281 26.03042969 7.25976562 26.27148438 6.36328125 C26.84289476 4.24089983 27.42077518 2.12026209 28 0 C32.62 0 37.24 0 42 0 C42 14.19 42 28.38 42 43 C39.03 43 36.06 43 33 43 C32.505 30.625 32.505 30.625 32 18 C30.06657568 25.852447 30.06657568 25.852447 28.14086914 33.70678711 C27.89973389 34.6788208 27.65859863 35.65085449 27.41015625 36.65234375 C27.16402588 37.65257568 26.91789551 38.65280762 26.66430664 39.68334961 C26 42 26 42 25 43 C22.03 43 19.06 43 16 43 C14.02 35.08 12.04 27.16 10 19 C9.16850461 24.71094255 9.16850461 24.71094255 8.68359375 30.40234375 C8.64169922 31.14677734 8.59980469 31.89121094 8.55664062 32.65820312 C8.49766602 33.78645508 8.49766602 33.78645508 8.4375 34.9375 C8.39431641 35.71673828 8.35113281 36.49597656 8.30664062 37.29882812 C8.20171923 39.19907117 8.1004755 41.09951669 8 43 C5.36 43 2.72 43 0 43 C0 28.81 0 14.62 0 0 Z " fill="#101010" transform="translate(492,417)"></path>
<path d="M0 0 C4.62 0 9.24 0 14 0 C15.00598393 3.74848774 16.00500382 7.49859547 17 11.25 C17.28617188 12.31347656 17.57234375 13.37695312 17.8671875 14.47265625 C18.13789063 15.49746094 18.40859375 16.52226562 18.6875 17.578125 C18.93886719 18.52075195 19.19023437 19.46337891 19.44921875 20.43457031 C20 23 20 23 20 27 C20.66 27 21.32 27 22 27 C22.11214844 25.88625 22.22429687 24.7725 22.33984375 23.625 C22.96508944 18.62303449 24.23158076 13.85394077 25.5625 9 C25.79646484 8.12988281 26.03042969 7.25976562 26.27148438 6.36328125 C26.84289476 4.24089983 27.42077518 2.12026209 28 0 C32.62 0 37.24 0 42 0 C42 14.19 42 28.38 42 43 C39.03 43 36.06 43 33 43 C32.505 30.625 32.505 30.625 32 18 C30.06657568 25.852447 30.06657568 25.852447 28.14086914 33.70678711 C27.89973389 34.6788208 27.65859863 35.65085449 27.41015625 36.65234375 C27.16402588 37.65257568 26.91789551 38.65280762 26.66430664 39.68334961 C26 42 26 42 25 43 C22.03 43 19.06 43 16 43 C14.02 35.08 12.04 27.16 10 19 C9.16850461 24.71094255 9.16850461 24.71094255 8.68359375 30.40234375 C8.64169922 31.14677734 8.59980469 31.89121094 8.55664062 32.65820312 C8.49766602 33.78645508 8.49766602 33.78645508 8.4375 34.9375 C8.39431641 35.71673828 8.35113281 36.49597656 8.30664062 37.29882812 C8.20171923 39.19907117 8.1004755 41.09951669 8 43 C5.36 43 2.72 43 0 43 C0 28.81 0 14.62 0 0 Z " fill="#101010" transform="translate(196,417)"></path>
<path d="M0 0 C4.186875 -0.04125 8.37375 -0.0825 12.6875 -0.125 C14.65529419 -0.15231201 14.65529419 -0.15231201 16.6628418 -0.18017578 C17.70609619 -0.1851709 18.74935059 -0.19016602 19.82421875 -0.1953125 C21.41882935 -0.21102295 21.41882935 -0.21102295 23.0456543 -0.22705078 C27.41821207 0.10899407 30.10530713 1.13015971 33.25 4.1875 C35.37252633 7.59870304 35.85701587 9.99644424 36 14 C34.64105062 19.31225668 31.45103456 22.03264363 27 25 C27.53109375 25.6290625 28.0621875 26.258125 28.609375 26.90625 C32.86689467 32.06499646 36.28242889 36.88546501 39 43 C34.98555596 44.11814302 31.98122437 44.33366077 28 43 C25.13414349 40.00482813 23.06355923 36.47605927 21.05737305 32.8671875 C20.43536011 31.79210937 20.43536011 31.79210937 19.80078125 30.6953125 C19.45184814 30.03547363 19.10291504 29.37563477 18.7434082 28.69580078 C16.40806718 26.14003169 16.40806718 26.14003169 9 25 C9 30.94 9 36.88 9 43 C6.03 43 3.06 43 0 43 C0 28.81 0 14.62 0 0 Z M9 8 C9 11.3 9 14.6 9 18 C11.27057377 18.05398987 13.54151288 18.09278742 15.8125 18.125 C17.70935547 18.15980469 17.70935547 18.15980469 19.64453125 18.1953125 C23.1338024 18.27581918 23.1338024 18.27581918 26 16 C26.41666667 13 26.41666667 13 26 10 C24.06029948 7.61607883 24.06029948 7.61607883 20.5234375 7.8046875 C19.14049032 7.81798507 17.75761346 7.84183768 16.375 7.875 C15.66859375 7.88402344 14.9621875 7.89304687 14.234375 7.90234375 C12.48943902 7.92592397 10.74467705 7.96179539 9 8 Z " fill="#0D0D0D" transform="translate(153,417)"></path>
<path d="M0 0 C3.63 -0.0825 7.26 -0.165 11 -0.25 C12.12792969 -0.28641602 13.25585938 -0.32283203 14.41796875 -0.36035156 C20.68659344 -0.4288732 25.91100237 0.05493605 31 4 C37.04659455 11.72675756 36.64834037 20.71320901 36 30 C34.75844236 34.8881898 32.86641017 37.31040823 28.9375 40.4375 C24.93647408 42.56570528 22.14351718 43.12233987 17.67578125 43.09765625 C16.28613159 43.09390991 16.28613159 43.09390991 14.8684082 43.09008789 C13.6949585 43.08098389 12.52150879 43.07187988 11.3125 43.0625 C7.579375 43.041875 3.84625 43.02125 0 43 C0 28.81 0 14.62 0 0 Z M9 8 C9 17.24 9 26.48 9 36 C17.02180595 36.35298961 17.02180595 36.35298961 24 34 C27.80907819 29.3021369 27.35760482 23.89891766 27.3984375 18.12109375 C26.83477231 13.7057164 25.10758055 11.10758055 22 8 C17.71 8 13.42 8 9 8 Z " fill="#0C0C0C" transform="translate(581,417)"></path>
<path d="M0 0 C3.63 -0.0825 7.26 -0.165 11 -0.25 C12.12792969 -0.28641602 13.25585938 -0.32283203 14.41796875 -0.36035156 C20.68659344 -0.4288732 25.91100237 0.05493605 31 4 C37.04659455 11.72675756 36.64834037 20.71320901 36 30 C34.75844236 34.8881898 32.86641017 37.31040823 28.9375 40.4375 C24.93647408 42.56570528 22.14351718 43.12233987 17.67578125 43.09765625 C16.28613159 43.09390991 16.28613159 43.09390991 14.8684082 43.09008789 C13.6949585 43.08098389 12.52150879 43.07187988 11.3125 43.0625 C7.579375 43.041875 3.84625 43.02125 0 43 C0 28.81 0 14.62 0 0 Z M9 8 C9 17.24 9 26.48 9 36 C17.02180595 36.35298961 17.02180595 36.35298961 24 34 C27.80907819 29.3021369 27.35760482 23.89891766 27.3984375 18.12109375 C26.83477231 13.7057164 25.10758055 11.10758055 22 8 C17.71 8 13.42 8 9 8 Z " fill="#0C0C0C" transform="translate(67,417)"></path>
<path d="M0 0 C10.56 0 21.12 0 32 0 C32 2.64 32 5.28 32 8 C24.41 8 16.82 8 9 8 C9 10.97 9 13.94 9 17 C16.26 17 23.52 17 31 17 C31 19.31 31 21.62 31 24 C23.74 24 16.48 24 9 24 C9 27.96 9 31.92 9 36 C16.92 36 24.84 36 33 36 C33 38.31 33 40.62 33 43 C22.11 43 11.22 43 0 43 C0 28.81 0 14.62 0 0 Z " fill="#0A0A0A" transform="translate(541,417)"></path>
<path d="M0 0 C3.3 0 6.6 0 10 0 C13.7586144 8.08206695 17.20413335 16.26059217 20.50415039 24.53735352 C21.32446663 26.59247982 22.1513009 28.64490773 22.97851562 30.69726562 C23.50299372 32.00765665 24.02709679 33.31819785 24.55078125 34.62890625 C25.02169189 35.80525635 25.49260254 36.98160645 25.9777832 38.19360352 C27 41 27 41 27 43 C23.7 43 20.4 43 17 43 C16.01 39.7 15.02 36.4 14 33 C5.585 33.495 5.585 33.495 -3 34 C-3.99 36.97 -4.98 39.94 -6 43 C-9.3 43 -12.6 43 -16 43 C-13.14014364 34.00745528 -9.69980417 25.24084369 -6.3125 16.4375 C-5.69969009 14.84056374 -5.08705835 13.24355909 -4.47460938 11.64648438 C-2.98512733 7.76353092 -1.49323218 3.88151276 0 0 Z M5 11 C4.16013916 12.93467942 3.32831973 14.87285129 2.5 16.8125 C2.0359375 17.89144531 1.571875 18.97039062 1.09375 20.08203125 C-0.17549303 22.94882024 -0.17549303 22.94882024 0 26 C3.63 26 7.26 26 11 26 C9.35 21.05 7.7 16.1 6 11 C5.67 11 5.34 11 5 11 Z " fill="#090909" transform="translate(652,417)"></path>
<path d="M0 0 C3.3 0 6.6 0 10 0 C13.7586144 8.08206695 17.20413335 16.26059217 20.50415039 24.53735352 C21.32446663 26.59247982 22.1513009 28.64490773 22.97851562 30.69726562 C23.50299372 32.00765665 24.02709679 33.31819785 24.55078125 34.62890625 C25.02169189 35.80525635 25.49260254 36.98160645 25.9777832 38.19360352 C27 41 27 41 27 43 C23.7 43 20.4 43 17 43 C16.01 39.7 15.02 36.4 14 33 C5.585 33.495 5.585 33.495 -3 34 C-3.99 36.97 -4.98 39.94 -6 43 C-9.3 43 -12.6 43 -16 43 C-13.14014364 34.00745528 -9.69980417 25.24084369 -6.3125 16.4375 C-5.69969009 14.84056374 -5.08705835 13.24355909 -4.47460938 11.64648438 C-2.98512733 7.76353092 -1.49323218 3.88151276 0 0 Z M5 11 C4.16013916 12.93467942 3.32831973 14.87285129 2.5 16.8125 C2.0359375 17.89144531 1.571875 18.97039062 1.09375 20.08203125 C-0.17549303 22.94882024 -0.17549303 22.94882024 0 26 C3.63 26 7.26 26 11 26 C9.35 21.05 7.7 16.1 6 11 C5.67 11 5.34 11 5 11 Z " fill="#090909" transform="translate(446,417)"></path>
<path d="M0 0 C3.3 0 6.6 0 10 0 C13.7586144 8.08206695 17.20413335 16.26059217 20.50415039 24.53735352 C21.32446663 26.59247982 22.1513009 28.64490773 22.97851562 30.69726562 C23.50299372 32.00765665 24.02709679 33.31819785 24.55078125 34.62890625 C25.02169189 35.80525635 25.49260254 36.98160645 25.9777832 38.19360352 C27 41 27 41 27 43 C23.7 43 20.4 43 17 43 C16.01 39.7 15.02 36.4 14 33 C5.585 33.495 5.585 33.495 -3 34 C-3.99 36.97 -4.98 39.94 -6 43 C-9.3 43 -12.6 43 -16 43 C-13.14014364 34.00745528 -9.69980417 25.24084369 -6.3125 16.4375 C-5.69969009 14.84056374 -5.08705835 13.24355909 -4.47460938 11.64648438 C-2.98512733 7.76353092 -1.49323218 3.88151276 0 0 Z M5 11 C4.16013916 12.93467942 3.32831973 14.87285129 2.5 16.8125 C2.0359375 17.89144531 1.571875 18.97039062 1.09375 20.08203125 C-0.17549303 22.94882024 -0.17549303 22.94882024 0 26 C3.63 26 7.26 26 11 26 C9.35 21.05 7.7 16.1 6 11 C5.67 11 5.34 11 5 11 Z " fill="#090909" transform="translate(258,417)"></path>
<path d="M0 0 C3.3 0 6.6 0 10 0 C13.7586144 8.08206695 17.20413335 16.26059217 20.50415039 24.53735352 C21.32446663 26.59247982 22.1513009 28.64490773 22.97851562 30.69726562 C23.50299372 32.00765665 24.02709679 33.31819785 24.55078125 34.62890625 C25.02169189 35.80525635 25.49260254 36.98160645 25.9777832 38.19360352 C27 41 27 41 27 43 C23.7 43 20.4 43 17 43 C16.01 39.7 15.02 36.4 14 33 C5.585 33.495 5.585 33.495 -3 34 C-3.99 36.97 -4.98 39.94 -6 43 C-9.3 43 -12.6 43 -16 43 C-13.14014364 34.00745528 -9.69980417 25.24084369 -6.3125 16.4375 C-5.69969009 14.84056374 -5.08705835 13.24355909 -4.47460938 11.64648438 C-2.98512733 7.76353092 -1.49323218 3.88151276 0 0 Z M5 11 C4.16013916 12.93467942 3.32831973 14.87285129 2.5 16.8125 C2.0359375 17.89144531 1.571875 18.97039062 1.09375 20.08203125 C-0.17549303 22.94882024 -0.17549303 22.94882024 0 26 C3.63 26 7.26 26 11 26 C9.35 21.05 7.7 16.1 6 11 C5.67 11 5.34 11 5 11 Z " fill="#090909" transform="translate(122,417)"></path>
<path d="M0 0 C5.7234375 -0.12375 5.7234375 -0.12375 11.5625 -0.25 C12.75174072 -0.28641602 13.94098145 -0.32283203 15.16625977 -0.36035156 C21.66250909 -0.42816324 25.81928482 -0.06497817 31 4 C34.0016621 8.10971368 33.51419133 13.12704834 33 18 C31.39875543 21.76292473 29.45444189 23.84097382 26 26 C20.57364835 27.80878388 14.66885438 27.05200784 9 27 C9 32.28 9 37.56 9 43 C6.03 43 3.06 43 0 43 C0 28.81 0 14.62 0 0 Z M9 8 C9 11.63 9 15.26 9 19 C10.93681161 19.08107583 12.8745934 19.13922475 14.8125 19.1875 C15.89144531 19.22230469 16.97039062 19.25710938 18.08203125 19.29296875 C20.97542511 19.23582825 20.97542511 19.23582825 22.8984375 17.71484375 C24.34451559 15.83023682 24.34451559 15.83023682 23.8125 12.375 C23.4103125 10.704375 23.4103125 10.704375 23 9 C20.23547967 7.61773984 17.9538637 7.90474613 14.875 7.9375 C13.77929688 7.94652344 12.68359375 7.95554687 11.5546875 7.96484375 C10.29011719 7.98224609 10.29011719 7.98224609 9 8 Z " fill="#0D0D0D" transform="translate(363,417)"></path>
<path d="M0 0 C3.03980964 2.5111471 4.7134604 4.00813217 5.8125 7.8125 C5.874375 8.534375 5.93625 9.25625 6 10 C3.03 10.66 0.06 11.32 -3 12 C-3.680625 10.7934375 -3.680625 10.7934375 -4.375 9.5625 C-5.74725665 6.91143428 -5.74725665 6.91143428 -8 6 C-12.10168835 5.61304827 -14.31469451 5.58285753 -17.875 7.75 C-21.23568217 11.30836935 -21.15441623 14.6668209 -21.1875 19.4375 C-21.20876953 20.82775391 -21.20876953 20.82775391 -21.23046875 22.24609375 C-20.90741367 26.10632822 -19.96471711 28.96382237 -17.3125 31.8125 C-14.09858889 33.46288678 -11.56315082 33.25913824 -8 33 C-6.515 32.505 -6.515 32.505 -5 32 C-4.29618843 30.01276732 -3.6288189 28.01222047 -3 26 C0.20062687 24.39968656 2.72271806 25.96826309 6 27 C5.62741859 32.21613978 3.89896391 35.5757804 0 39 C-5.25049335 42.02913078 -10.06172196 42.90965016 -16 42 C-21.91739284 40.11960766 -25.49862169 37.04610404 -29 32 C-32.39605445 25.0887313 -32.22425291 15.79784726 -29.9375 8.5 C-27.53816722 3.22599492 -23.19841054 0.02904323 -18.0625 -2.375 C-11.12223219 -3.79138118 -6.25970787 -3.42512318 0 0 Z " fill="#0E0E0E" transform="translate(333,419)"></path>
<path d="M0 0 C11.55 0 23.1 0 35 0 C35 2.31 35 4.62 35 7 C34.67 7.33 34.34 7.66 34 8 C30.04 8 26.08 8 22 8 C22 19.55 22 31.1 22 43 C19.03 43 16.06 43 13 43 C13 31.45 13 19.9 13 8 C9.04 8 5.08 8 1 8 C0.67 7.67 0.34 7.34 0 7 C0 4.69 0 2.38 0 0 Z " fill="#0F0F0F" transform="translate(399,417)"></path>
<path d="M0 0 C18.27375 -0.103125 36.5475 -0.20625 55.375 -0.3125 C64.00922119 -0.38078003 64.00922119 -0.38078003 72.81787109 -0.45043945 C79.88208008 -0.47302246 79.88208008 -0.47302246 83.19595337 -0.47721863 C85.49556321 -0.48486396 87.79515381 -0.50238173 90.09463501 -0.52787781 C93.59127269 -0.56468779 97.08669256 -0.5695232 100.58349609 -0.56762695 C101.5967716 -0.58561749 102.61004711 -0.60360804 103.65402794 -0.62214375 C110.83866235 -0.5702838 115.86049016 1.3090371 122 5 C121.34 5.33 120.68 5.66 120 6 C118.2203989 5.23862076 118.2203989 5.23862076 116.05848694 4.09088135 C110.64991626 1.58767262 105.95195944 1.45927908 100.06420898 1.54589844 C98.48215919 1.54502228 98.48215919 1.54502228 96.8681488 1.54412842 C93.41045271 1.54689689 89.95363772 1.57793129 86.49609375 1.609375 C84.08757498 1.61684176 81.67905011 1.62253264 79.27052307 1.62652588 C72.95261661 1.64174776 66.63508202 1.68100033 60.31732178 1.7253418 C53.86198964 1.76636865 47.40659701 1.78455274 40.95117188 1.8046875 C28.30062324 1.84749754 15.65033147 1.91493096 3 2 C2.99576806 2.68875654 2.99153612 3.37751308 2.98717594 4.08714104 C2.88397449 20.82835632 2.77535264 37.5695267 2.66066074 54.31066704 C2.60532854 62.40647806 2.55184656 70.50229349 2.50268555 78.59814453 C2.45984367 85.65259288 2.41356567 92.70700878 2.36312145 99.76140702 C2.33652053 103.4983564 2.31166747 107.23529934 2.29092598 110.97228622 C2.26773531 115.13896223 2.23687493 119.3055469 2.20532227 123.47216797 C2.1995668 124.71797638 2.19381134 125.96378479 2.18788147 127.24734497 C2.17809265 128.37759094 2.16830383 129.50783691 2.15821838 130.67233276 C2.14853956 132.1518105 2.14853956 132.1518105 2.1386652 133.66117668 C2 136 2 136 1 138 C36.97 138 72.94 138 110 138 C110 138.33 110 138.66 110 139 C73.7 139 37.4 139 0 139 C0 93.13 0 47.26 0 0 Z " fill="#239655" transform="translate(285,138)"></path>
<path d="M0 0 C2.97 0 5.94 0 9 0 C9 14.19 9 28.38 9 43 C6.03 43 3.06 43 0 43 C0 28.81 0 14.62 0 0 Z " fill="#090909" transform="translate(624,417)"></path>
<path d="M0 0 C2.97 0 5.94 0 9 0 C9 14.19 9 28.38 9 43 C6.03 43 3.06 43 0 43 C0 28.81 0 14.62 0 0 Z " fill="#090909" transform="translate(346,417)"></path>
</svg><style>@media (prefers-color-scheme: light) { :root { filter: none; } }
@media (prefers-color-scheme: dark) { :root { filter: none; } }
</style></svg>